{
    "asset" : {
        "extras" : {
            "HUBS_blenderExporterVersion" : "0.0.5"
        },
        "generator" : "Khronos glTF Blender I/O v1.4.40",
        "version" : "2.0"
    },
    "extensionsUsed" : [
        "MOZ_hubs_components"
    ],
    "extensions" : {
        "MOZ_hubs_components" : {
            "version" : 3,
            "exporterVersion" : "0.0.5"
        }
    },
    "scene" : 0,
    "scenes" : [
        {
            "name" : "Scene",
            "nodes" : [
                0
            ]
        }
    ],
    "nodes" : [
        {
            "extensions" : {
                "MOZ_hubs_components" : {
                    "uv-scroll" : {
                        "speed" : {
                            "x" : 0,
                            "y" : 1
                        },
                        "increment" : {
                            "x" : 0,
                            "y" : 0
                        }
                    }
                }
            },
            "mesh" : 0,
            "name" : "Plane"
        }
    ],
    "materials" : [
        {
            "doubleSided" : true,
            "name" : "sinus",
            "pbrMetallicRoughness" : {
                "baseColorTexture" : {
                    "index" : 0,
                    "texCoord" : 0
                },
                "metallicFactor" : 0,
                "roughnessFactor" : 0.5
            }
        }
    ],
    "meshes" : [
        {
            "name" : "Plane",
            "primitives" : [
                {
                    "attributes" : {
                        "POSITION" : 0,
                        "NORMAL" : 1,
                        "TEXCOORD_0" : 2
                    },
                    "indices" : 3,
                    "material" : 0
                }
            ]
        }
    ],
    "textures" : [
        {
            "sampler" : 0,
            "source" : 0
        }
    ],
    "images" : [
        {
            "bufferView" : 4,
            "mimeType" : "image/png",
            "name" : "sinus"
        }
    ],
    "accessors" : [
        {
            "bufferView" : 0,
            "componentType" : 5126,
            "count" : 4,
            "max" : [
                1,
                0,
                1
            ],
            "min" : [
                -1,
                0,
                -1
            ],
            "type" : "VEC3"
        },
        {
            "bufferView" : 1,
            "componentType" : 5126,
            "count" : 4,
            "type" : "VEC3"
        },
        {
            "bufferView" : 2,
            "componentType" : 5126,
            "count" : 4,
            "type" : "VEC2"
        },
        {
            "bufferView" : 3,
            "componentType" : 5123,
            "count" : 6,
            "type" : "SCALAR"
        }
    ],
    "bufferViews" : [
        {
            "buffer" : 0,
            "byteLength" : 48,
            "byteOffset" : 0
        },
        {
            "buffer" : 0,
            "byteLength" : 48,
            "byteOffset" : 48
        },
        {
            "buffer" : 0,
            "byteLength" : 32,
            "byteOffset" : 96
        },
        {
            "buffer" : 0,
            "byteLength" : 12,
            "byteOffset" : 128
        },
        {
            "buffer" : 0,
            "byteLength" : 15915,
            "byteOffset" : 140
        }
    ],
    "samplers" : [
        {
            "magFilter" : 9729,
            "minFilter" : 9986
        }
    ],
    "buffers" : [
        {
            "byteLength" : 16056,
            "uri" : "data:application/octet-stream;base64,"
        }
    ]
}
